<?xml version="1.0" encoding="utf-8"?>
<svg style="position: absolute; width: 0; height: 0;" width="0" height="0" version="1.1" xmlns="http://www.w3.org/2000/svg" xmlns:xlink="http://www.w3.org/1999/xlink">
  <defs>
    <symbol id="icon-plus" viewBox="0 0 512 512">
      <title>plus</title>
      <g>
        <path class="path1" d="M12.126984,0L19.872009,0 19.872009,12.128 32,12.128 32,19.872999 19.872009,19.872999 19.872009,31.999 12.126984,31.999 12.126984,19.872999 0,19.872999 0,12.128 12.126984,12.128z" />
      </g>
    </symbol>
    <symbol id="icon-find" viewBox="0 0 512 512">
      <title>find</title>
      <g>
        <path class="path1" d="M12.003748,4.5049986C10.494726,4.5309996 8.9806971,4.987008 7.7016882,5.9000024 4.5866403,8.1250076 4.0476317,12.220008 6.5006675,15.049994 8.9517054,17.875006 13.465759,18.364996 16.581798,16.140005 19.698844,13.915 20.235855,9.8199996 17.783826,6.9899983 16.404809,5.3980035 14.373776,4.5479979 12.305754,4.5049986 12.205747,4.5029997 12.104748,4.5029997 12.003748,4.5049986z M12.127743,2.0721107E-06C15.724792,-0.0019966637 19.286836,1.4420032 21.684881,4.2050108 25.103918,8.1500015 25.075918,13.549994 22.002878,17.435003L31.444,28.325001 26.299932,32.000002 16.892806,21.15C11.969737,23.054996 6.0676631,21.830006 2.5996136,17.834997 -1.5464387,13.049994 -0.63543081,6.1250085 4.6346449,2.3600098 6.8586745,0.77200525 9.5027079,0.0010016877 12.127743,2.0721107E-06z" />
      </g>
    </symbol>
    <symbol id="icon-find-wf" viewBox="0 0 512 512">
      <title>find-wf</title>
      <g>
        <path class="path1" d="M11.170988,2.0000026C6.1139962,2.0000026 1.9999944,6.1120075 1.9999944,11.16603 1.9999944,16.219991 6.1139962,20.331996 11.170988,20.331996 16.227981,20.331996 20.341006,16.219991 20.341006,11.16603 20.341006,6.1120075 16.227981,2.0000026 11.170988,2.0000026z M11.170988,0C17.33003,0 22.341001,5.0089787 22.341001,11.16603 22.341001,13.76351 21.449155,16.156669 19.95551,18.055608L19.942527,18.071714 31.999898,30.615001 30.5589,32.001003 18.567029,19.525854 18.476871,19.605846C16.516895,21.303544 13.961804,22.332 11.170988,22.332 5.0119487,22.332 1.6168633E-07,17.32302 0,11.16603 1.6168633E-07,5.0089787 5.0119487,0 11.170988,0z" />
      </g>
    </symbol>
    <symbol id="icon-delete" viewBox="0 0 512 512">
      <title>delete</title>
      <g>
        <path class="path1" d="M2.0050016,10.291992L6.2790426,10.291992 6.2790426,28.350006 9.5599821,28.350006 9.5599821,10.291992 14.490027,10.291992 14.490027,28.350006 17.772981,28.350006 17.772981,10.291992 22.04696,10.291992 22.04696,32 2.0050016,32z M0,3.5249939L24.053,3.5249939 24.053,6.6329956 0,6.6329956z M6.5170182,0L17.535981,0 17.535981,2.8399963 6.5170182,2.8399963z" />
      </g>
    </symbol>
    <symbol id="icon-app" viewBox="0 0 512 512">
      <title>app</title>
      <g>
        <path class="path1" d="M27.800018,21.800009C28.300018,21.800009 28.600006,22.099997 28.600006,22.599997 28.600006,23.099997 28.300018,23.4 27.800018,23.4 27.300018,23.4 27,23.099997 27,22.599997 27,22.200003 27.400024,21.800009 27.800018,21.800009z M27.100006,21.000004C25.800018,21.000004 24.800018,22.000006 24.800018,23.300009 24.800018,23.599997 24.900024,23.800009 24.900024,24.099997L22.100006,26.9 22.100006,28.200018 23.400024,28.200018 23.400024,27.4 24.200012,27.4 24.200012,26.600012 25,26.600012 26.200012,25.4C26.400024,25.500006 26.700012,25.500006 27,25.500006 28.300018,25.500006 29.300018,24.500006 29.300018,23.200003 29.400024,22.099997 28.400024,21.000004 27.100006,21.000004z M25.800018,18.500004C29.200012,18.500004 32,21.300007 32,24.700003 32,28.100012 29.200012,30.900002 25.800018,30.900002 22.400024,30.900002 19.600006,28.100012 19.600006,24.700003 19.600006,21.200001 22.400024,18.500004 25.800018,18.500004z M13.700012,1.2413238E-07C13.712513,-4.1377461E-08 13.723452,-4.1377461E-08 13.732826,1.2413238E-07 13.742203,-4.1377461E-08 13.750015,-4.1377461E-08 13.756266,1.2413238E-07 13.762516,-4.1377461E-08 13.767204,-4.1377461E-08 13.770329,1.2413238E-07 13.773455,-4.1377461E-08 13.775017,-4.1377461E-08 13.775017,1.2413238E-07L13.800018,1.2413238E-07C19.100006,-4.1377461E-08 20.100006,3.8000038 19.900024,5.1999982 19.800018,6.3999956 19.5,7.8999956 19.5,7.8999956 19.5,7.8999956 20.100006,8.1999991 20.100006,9.1999991 19.900024,11.800006 18.900024,10.699999 18.700012,11.800006 18.300018,14.000003 17.400024,14.099994 17.100006,14.899997 17,15.099994 17,15.300006 17,15.599995 17,17.700001 17.800018,18.800007 20.300018,19.899998 19.200012,21.200001 18.5,22.9 18.5,24.700003 18.5,27.100012 19.700012,29.299994 21.5,30.600014L0,30.600014 0,24.300009C0,23.300009 1.7000122,21.9 5.5,20.599995 9.3000183,19.200001 10.5,18.099995 10.5,15.599995 10.5,15.300006 10.5,15.099994 10.400024,14.899997 10.100006,14.099994 9.3000183,14.000003 8.8000183,11.800006 8.6000061,10.699999 7.6000061,11.800006 7.4000244,9.1999991 7.4000244,8.1999991 8,7.8999956 8,7.8999956 8,7.8999956 7.7000122,6.3999956 7.6000061,5.1999982 7.5,3.8000038 8.5,-4.1377461E-08 13.700012,1.2413238E-07z" />
      </g>
    </symbol>
    <symbol id="icon-Lock-Open" viewBox="0 0 512 512">
      <title>Lock-Open</title>
      <g>
        <ellipse cy="24" cx="24" ry="24" rx="24" fill="#5F60B8" />
        <path class="path1" d="M9.9989946,18.801896C8.3989875,18.801896 7.0990002,20.101909 7.0990002,21.700919 7.0990002,22.900926 7.7989819,23.800933 8.6990068,24.300937L8.6990068,28.200965 11.099001,28.200965 11.099001,24.300937C12.099001,23.800933 12.698,22.900926 12.698,21.700919 12.798006,20.101909 11.498995,18.801896 9.9989946,18.801896z M8.7611511,0.00021949895C11.466109,0.023492754,14.032363,1.8943686,15.097994,4.7027968L16.397981,8.4028276C16.597994,9.0028308,16.698,9.6028331,16.798006,10.202836L14.897981,10.202836C14.897981,9.7028325,14.798006,9.2028287,14.597994,8.7028259L13.597994,6.0028094C12.599001,3.2037857 9.5990007,1.703775 6.898988,2.8037814 4.1999824,3.8037885 2.8999944,7.0028165 4.0000007,9.902839L4.8989875,12.402856 13.997987,12.402856 16.798006,12.402856C18.997987,12.701855,20.698002,14.801868,20.698002,17.201886L20.698002,27.100959C20.698002,29.799976,18.698,31.999996,16.198,31.999996L4.4989936,31.999996C2.0000005,31.999996,1.4330499E-07,29.799976,0,27.100959L0,17.201886C1.4330499E-07,15.101874,1.2999881,13.301857,3.099976,12.602855L2.1999824,10.002838C0.79998801,6.3028067 2.5000005,2.0037802 6.0989997,0.50376948 6.898988,0.20376425 7.6990063,0.0037658689 8.4989936,0.0037657364 8.5864932,0.0006408943 8.6738946,-0.00053094873 8.7611511,0.00021949895z" />
      </g>
    </symbol>
    <symbol id="icon-Wrong" viewBox="0 0 512 512">
      <title>Wrong</title>
      <g>
        <path class="path1" d="M5.1163335,0C6.4203386,-9.1704351E-08,7.7243743,0.4009941,8.7273803,1.4039678L16.150495,8.1248624 23.27359,1.704927C25.27963,-0.10003502 28.489671,-0.10003502 30.495712,1.704927 32.502731,3.5109269 32.502731,6.4198744 30.495712,8.2258736L23.373596,14.745721 30.094705,20.864637C32.100749,22.670576 32.100749,25.579523 30.094705,27.385523 28.088663,29.190485 24.878623,29.190485 22.871604,27.385523L16.150495,21.26563 9.1293941,27.585531C7.122345,29.39147 3.9123056,29.39147 1.9062939,27.585531 -0.099748187,25.780569 -0.099748187,22.870584 1.9062939,21.065622L8.9283719,14.745721 1.5052868,7.9248535C-0.50176227,6.1188537 -0.50176227,3.2099065 1.5052868,1.4039678 2.5082927,0.50200556 3.8122978,-9.1704351E-08 5.1163335,0z" />
      </g>
    </symbol>
    <symbol id="icon-Warning-Shield" viewBox="0 0 512 512">
      <title>Warning-Shield</title>
      <g>
        <path class="path1" d="M15.396557,23.044006C14.220558,23.044006 13.268559,23.886993 13.268559,24.927994 13.268559,25.975006 14.220558,26.817001 15.396557,26.817001 16.572557,26.817001 17.523547,25.975006 17.523547,24.927994 17.523547,23.886993 16.572557,23.044006 15.396557,23.044006z M15.467541,5.1819992C15.447552,5.1819992 15.436566,5.1829987 15.436566,5.1829987 13.118533,5.5049973 13.055545,7.3330002 13.055545,7.3330002L13.055545,9.2929993 13.626531,16.539001C13.983558,18.357002 14.243538,19.020004 14.243538,19.020004 15.275555,19.975006 16.203567,19.25 16.203567,19.25 16.976548,18.565994 17.028552,16.962997 17.028552,16.962997 17.956563,9.2929993 17.696553,7.1029968 17.696553,7.1029968 17.608571,5.2839966 15.823561,5.1849976 15.490551,5.1819992 15.481549,5.1819992 15.473553,5.1819992 15.467541,5.1819992z M15.56355,0C15.56355,0 21.710574,4.1259995 31.581613,2.8030014 31.581613,2.8030014 33.634629,26.556992 15.56355,32 15.56355,32 -0.10249132,27.548004 0.00050565118,2.9670029 0.0005058694,2.9670029 10.72555,3.6309967 15.56355,0z" />
      </g>
    </symbol>
    <symbol id="icon-Warning-Message" viewBox="0 0 512 512">
      <title>Warning-Message</title>
      <g>
        <path class="path1" d="M13.950004,24.5L13.950004,28.299988 17.950004,28.299988 17.950004,24.5z M13.950004,10.399963L13.950004,21.699951 17.950004,21.699951 17.950004,10.399963z M15.950004,0C16.349998,0,16.750007,0.19995117,16.950004,0.69995117L31.750011,30.099976C31.949993,30.5 31.949993,31 31.750011,31.399963 31.549999,31.799988 31.150005,32 30.750011,32L1.1499981,32C0.75000406,32 0.34999478,31.799988 0.14999761,31.399963 -0.049999204,31 -0.049999204,30.5 0.14999761,30.099976L14.950004,0.69995117C15.150001,0.19995117,15.549995,0,15.950004,0z" />
      </g>
    </symbol>
    <symbol id="icon-Info" viewBox="0 0 512 512">
      <title>Info</title>
      <g>
        <path class="path1" d="M11.331985,10.669C11.137986,10.669 10.976986,10.731 10.852986,10.855999 10.728987,10.981 10.665987,11.141 10.665987,11.335L10.665987,14.668C10.665987,14.862 10.727986,15.021999 10.852986,15.146999 10.977986,15.271999 11.136986,15.334 11.331985,15.334L13.331984,15.334 13.331984,22 11.331985,22C11.137986,22 10.976986,22.063 10.852986,22.188 10.728987,22.313 10.665987,22.471999 10.665987,22.667L10.665987,26C10.665987,26.195 10.727986,26.354 10.852986,26.479 10.977986,26.604 11.136986,26.667 11.331985,26.667L20.665975,26.667C20.860975,26.667 21.019974,26.604 21.144974,26.479 21.269974,26.354 21.332974,26.193999 21.332974,26L21.330974,26.002 21.330974,22.667999C21.330974,22.474 21.267974,22.313999 21.143974,22.188999 21.019974,22.063999 20.859975,22.002 20.664975,22.002L18.665977,22.002 18.665977,11.335C18.665977,11.141 18.602977,10.981 18.477977,10.855999 18.352978,10.731 18.192978,10.669 17.998978,10.669z M13.999983,3.3329997C13.805983,3.3329997 13.646983,3.3959994 13.520984,3.5209994 13.394983,3.6459994 13.332984,3.8049994 13.332984,3.9999995L13.332984,7.3329997C13.332984,7.5269995 13.395984,7.6879995 13.520984,7.8119993 13.645983,7.9359996 13.805983,7.9989996 13.999983,7.9989996L17.999978,7.9989996C18.194978,7.9989996 18.353978,7.9369996 18.478977,7.8119993 18.603977,7.6869996 18.666977,7.5269995 18.666977,7.3329997L18.666977,3.9999995C18.666977,3.8049994 18.603977,3.6459994 18.478977,3.5209994 18.353978,3.3959994 18.193978,3.3329997 17.999978,3.3329997z M15.99998,0C18.902977,0 21.579974,0.7149992 24.030971,2.1459999 26.481968,3.5769997 28.422966,5.5179996 29.853964,7.9689994L29.855964,7.9689994C31.285962,10.42 32.000961,13.097 32.000961,16 32.000961,18.901999 31.285962,21.58 29.854964,24.030999 28.423966,26.482 26.482968,28.424 24.031971,29.854 21.579974,31.285 18.901977,32 15.99998,32 13.097983,32 10.419987,31.285 7.9689894,29.854 5.517992,28.423 3.5769958,26.482 2.1459961,24.030999 0.71499825,21.58 0,18.901999 0,16 0,13.098 0.71499825,10.421 2.1459961,7.9689994 3.5769958,5.5169997 5.517992,3.5769997 7.9689894,2.1459999 10.419987,0.7149992 13.096984,0 15.99998,0z" />
      </g>
    </symbol>
    <symbol id="icon-Lock-Add" viewBox="0 0 512 512">
      <title>Lock-Add</title>
      <g>
        <ellipse cy="24" cx="24" stroke-width="1.625" ry="23.1875" rx="23.1875" stroke="#6B6B6B" fill="transparent" />
        <path class="path1" d="M25.078,26.181976C24.877011,26.181976 24.777036,26.281982 24.676999,26.281982 24.075009,26.483002 23.673032,26.983978 23.673032,27.585999 23.673032,28.187988 24.075009,28.588989 24.575986,28.889984L24.575986,30.79599 25.880002,30.79599 25.880002,28.889984C26.382016,28.690002 26.783017,28.187988 26.783017,27.585999 26.783017,26.983978 26.382016,26.483002 25.780026,26.281982 25.479001,26.281982 25.379025,26.181976 25.078,26.181976z M25.178036,20.764984C23.973996,20.764984,23.072018,21.566986,23.072018,22.67099L23.072018,23.673981C23.072018,23.974976,23.171994,24.276001,23.272031,24.576996L27.083981,24.576996C27.285031,24.276001,27.285031,23.974976,27.285031,23.673981L27.285031,22.67099C27.285031,21.566986,26.382016,20.764984,25.178036,20.764984z M25.178036,19.961975C26.783017,19.961975,28.087033,21.065979,28.087033,22.470001L28.087033,23.773987C28.087033,24.074982 28.087033,24.276001 27.986996,24.475983 28.790036,24.677002 29.492001,25.378998 29.492001,26.281982L29.492001,30.093994C29.492001,31.096985,28.689023,32,27.585995,32L22.770993,32C21.768002,32,20.864987,31.196991,20.864987,30.093994L20.864987,26.281982C20.864987,25.378998 21.567014,24.576996 22.470029,24.475983 22.369015,24.276001 22.369015,23.974976 22.369015,23.773987L22.369015,22.470001C22.268979,21.065979,23.572995,19.961975,25.178036,19.961975z M12.437987,5.617981L12.437987,5.7179871C12.338012,5.7179871,12.137023,5.8179932,12.137023,6.0189819L12.137023,11.635986 6.7210076,11.635986C6.6199944,11.635986,6.4199822,11.737,6.4199822,11.936981L6.4199822,15.247986C6.4199822,15.347992,6.5200189,15.548981,6.7210076,15.548981L12.238036,15.548981 12.238036,21.065979C12.238036,21.165985,12.338012,21.366974,12.539,21.366974L16.551024,21.366974C16.652037,21.366974,16.851989,21.265991,16.851989,21.065979L16.851989,15.548981 22.06799,15.548981C22.169003,15.548981,22.369015,15.447998,22.369015,15.247986L22.369015,11.936981C22.369015,11.836975,22.268979,11.635986,22.06799,11.635986L16.851989,11.635986 16.851989,5.9189758C16.851989,5.8179932,16.752013,5.617981,16.551024,5.617981z M14.544982,0C22.570004,0 29.090024,6.519989 29.090024,14.544983 29.090024,16.450989 28.689023,18.356995 27.986996,20.062988 27.285031,19.159973 26.080991,18.557983 24.777036,18.557983 22.470029,18.557983 20.663998,20.363983 20.663998,22.67099L20.663998,23.472992C19.561032,24.074982,18.858031,25.178986,18.858031,26.483002L18.858031,28.588989C17.453978,28.990997 15.949034,29.291992 14.445006,29.291992 6.5200189,29.190979 1.9937215E-07,22.67099 0,14.544983 1.9937215E-07,6.519989 6.5200189,0 14.544982,0z" />
      </g>
    </symbol>
    <symbol id="icon-Edit" viewBox="0 0 512 512">
      <title>Edit</title>
      <g>
        <path class="path1" d="M0,22.691865L9.6958332,27.864942 0.24500618,32.000013z M8.8988495,6.3116251L18.869686,12.034729 11.211813,25.370919 10.644821,23.665877 7.7198686,23.364879 7.2188854,21.531844 4.3549361,21.429853 3.5479436,19.422835 1.2459807,19.647815z M13.690775,0.00052993685C13.965764,-0.0064584891,14.233765,0.055554115,14.474758,0.19355655L21.534634,4.2476002C22.392622,4.7375976,22.586618,6.0146238,21.968632,7.0966398L21.126636,8.5616571 10.95782,2.7255753 11.799801,1.2555529C12.243793,0.48054798,12.988775,0.017528671,13.690775,0.00052993685z" />
      </g>
    </symbol>
    <symbol id="icon-Camera" viewBox="0 0 512 512">
      <title>Camera</title>
      <g>
        <path class="path1" d="M16.417994,7.7930131C12.833993,7.7930131 9.9179935,10.704013 9.9179935,14.283013 9.9179935,17.862013 12.833993,20.774014 16.417994,20.774014 20.001993,20.774014 22.917994,17.862013 22.917994,14.283013 22.917994,10.704013 20.001993,7.7930131 16.417994,7.7930131z M26.769007,6.7930036C27.321007,6.7930036 27.769007,7.2410035 27.769007,7.7930036 27.769007,8.3450036 27.321007,8.7930036 26.769007,8.7930036 26.217007,8.7930036 25.769007,8.3450036 25.769007,7.7930036 25.769007,7.2410035 26.217007,6.7930036 26.769007,6.7930036z M16.417994,5.7830133C21.104994,5.7830133 24.917994,9.5970132 24.917994,14.283013 24.917994,18.970013 21.104994,22.783013 16.417994,22.783013 14.367431,22.783013 12.484158,22.053182 11.014286,20.83963L10.930353,20.766903 11.128745,20.995876C12.68473,22.707597 14.928032,23.784008 17.417999,23.784008 22.104996,23.784008 25.917999,19.970013 25.917999,15.284008 25.917999,14.491985 25.800995,13.728008 25.597,13.000011L32,13.000011 32,25.000011 0,25.000011 0,13.000011 8.0147734,13.000011 8.0161095,12.990492C8.6406126,8.9154096,12.1704,5.7830133,16.417994,5.7830133z M10.554001,0L21.445002,0 23.398001,3 32,3 32,13 30,13 30,5 22.314001,5 20.361,2 11.638,2 9.6850004,5 2.000001,5 2.000001,13 9.5367432E-07,13 9.5367432E-07,3 8.6010008,3z" />
      </g>
    </symbol>
  </defs>
</svg>

