<?xml version="1.0" encoding="utf-8"?>
<svg xmlns="http://www.w3.org/2000/svg" height="48" width="48" viewBox="0 0 48 48">
  <g>
    <path id="path1" transform="rotate(0,24,24) translate(11,13.8437453508377) scale(0.8125,0.8125)  " fill="#E16C6C" d="M16.417994,7.7930131C12.833993,7.7930131 9.9179935,10.704013 9.9179935,14.283013 9.9179935,17.862013 12.833993,20.774014 16.417994,20.774014 20.001993,20.774014 22.917994,17.862013 22.917994,14.283013 22.917994,10.704013 20.001993,7.7930131 16.417994,7.7930131z M26.769007,6.7930036C27.321007,6.7930036 27.769007,7.2410035 27.769007,7.7930036 27.769007,8.3450036 27.321007,8.7930036 26.769007,8.7930036 26.217007,8.7930036 25.769007,8.3450036 25.769007,7.7930036 25.769007,7.2410035 26.217007,6.7930036 26.769007,6.7930036z M16.417994,5.7830133C21.104994,5.7830133 24.917994,9.5970132 24.917994,14.283013 24.917994,18.970013 21.104994,22.783013 16.417994,22.783013 14.367431,22.783013 12.484158,22.053182 11.014286,20.83963L10.930353,20.766903 11.128745,20.995876C12.68473,22.707597 14.928032,23.784008 17.417999,23.784008 22.104996,23.784008 25.917999,19.970013 25.917999,15.284008 25.917999,14.491985 25.800995,13.728008 25.597,13.000011L32,13.000011 32,25.000011 0,25.000011 0,13.000011 8.0147734,13.000011 8.0161095,12.990492C8.6406126,8.9154096,12.1704,5.7830133,16.417994,5.7830133z M10.554001,0L21.445002,0 23.398001,3 32,3 32,13 30,13 30,5 22.314001,5 20.361,2 11.638,2 9.6850004,5 2.000001,5 2.000001,13 9.5367432E-07,13 9.5367432E-07,3 8.6010008,3z" />
  </g>
</svg>