<?xml version="1.0" encoding="utf-8"?>
<svg xmlns="http://www.w3.org/2000/svg" height="48" width="48" viewBox="0 0 48 48">
  <g>
    <path id="path1" transform="rotate(0,24,24) translate(11,12.3491559028625) scale(0.8125,0.8125)  " fill="#E70B0B" d="M19.118958,12.578998C19.320007,12.980991 19.420959,13.483997 19.420959,13.987003 19.420959,15.89899 17.810974,17.508989 15.898987,17.508989 15.697998,17.508989 15.395996,17.508989 15.195007,17.408998z M23.244995,7.4469966C28.477966,10.062993 32,14.28899 32,14.28899 32,14.28899 24.753967,23.043993 15.898987,23.043993 14.289001,23.043993 12.778992,22.741991 11.269958,22.239L13.080994,20.024996C13.987,20.226 14.992981,20.427996 15.898987,20.427996 21.231995,20.427996 26.162964,16.804996 28.880005,14.28899 27.169006,12.780002 24.653992,10.666997 21.63501,9.4590043z M15.898987,5.6350006C16.602966,5.6350006,17.307983,5.7359985,18.011963,5.835997L16.099976,8.2520045C10.565979,8.2520045 5.7349854,11.873998 3.0180054,14.390003 4.3269653,15.597003 6.0369873,17.005998 8.1499634,18.213991L6.6409912,20.125994C2.6159668,17.610002 0,14.390003 0,14.390003 0,14.390003 7.0440063,5.6350006 15.898987,5.6350006z M24.552979,0L26.263977,1.4090037 4.3269653,28.679001 2.6159668,27.269989z" />
  </g>
</svg>