<?xml version="1.0" encoding="utf-8"?>
<svg xmlns="http://www.w3.org/2000/svg" height="48" width="48" viewBox="0 0 48 48">
  <g>
    <path id="path1" transform="rotate(0,24,24) translate(11,16.9312493801117) scale(0.8125,0.8125)  " fill="#89D13F" d="M16,4.9000015C17.899994,4.9000015 19.5,6.4999918 19.5,8.4000015 19.5,10.299994 17.899994,11.900001 16,11.900001 14.100006,11.900001 12.5,10.299994 12.5,8.4000015 12.5,6.400001 14.100006,4.9000015 16,4.9000015z M16,2.5999984C10.700012,2.5999984 5.8000183,6.1999888 3.1000061,8.6999893 5.8000183,11.199988 10.600006,14.799994 16,14.799994 21.300018,14.799994 26.200012,11.199988 28.899994,8.6999893 26.200012,6.1999888 21.300018,2.5999984 16,2.5999984z M16,0C24.800018,5.2249334E-08 32,8.6999893 32,8.6999893 32,8.6999893 24.800018,17.400001 16,17.400001 7.2000122,17.400001 0,8.6999893 0,8.6999893 0,8.6999893 7.2000122,5.2249334E-08 16,0z" />
  </g>
</svg>