<?xml version="1.0" encoding="utf-8"?>
<svg xmlns="http://www.w3.org/2000/svg" height="48" width="48" viewBox="0 0 48 48">
  <g>
    <path id="path1" transform="rotate(0,24,24) translate(11,11.0003905179011) scale(0.81247559263118,0.81247559263118)  " fill="#1D97EA" d="M11.331985,10.669C11.137986,10.669 10.976986,10.731 10.852986,10.855999 10.728987,10.981 10.665987,11.141 10.665987,11.335L10.665987,14.668C10.665987,14.862 10.727986,15.021999 10.852986,15.146999 10.977986,15.271999 11.136986,15.334 11.331985,15.334L13.331984,15.334 13.331984,22 11.331985,22C11.137986,22 10.976986,22.063 10.852986,22.188 10.728987,22.313 10.665987,22.471999 10.665987,22.667L10.665987,26C10.665987,26.195 10.727986,26.354 10.852986,26.479 10.977986,26.604 11.136986,26.667 11.331985,26.667L20.665975,26.667C20.860975,26.667 21.019974,26.604 21.144974,26.479 21.269974,26.354 21.332974,26.193999 21.332974,26L21.330974,26.002 21.330974,22.667999C21.330974,22.474 21.267974,22.313999 21.143974,22.188999 21.019974,22.063999 20.859975,22.002 20.664975,22.002L18.665977,22.002 18.665977,11.335C18.665977,11.141 18.602977,10.981 18.477977,10.855999 18.352978,10.731 18.192978,10.669 17.998978,10.669z M13.999983,3.3329997C13.805983,3.3329997 13.646983,3.3959994 13.520984,3.5209994 13.394983,3.6459994 13.332984,3.8049994 13.332984,3.9999995L13.332984,7.3329997C13.332984,7.5269995 13.395984,7.6879995 13.520984,7.8119993 13.645983,7.9359996 13.805983,7.9989996 13.999983,7.9989996L17.999978,7.9989996C18.194978,7.9989996 18.353978,7.9369996 18.478977,7.8119993 18.603977,7.6869996 18.666977,7.5269995 18.666977,7.3329997L18.666977,3.9999995C18.666977,3.8049994 18.603977,3.6459994 18.478977,3.5209994 18.353978,3.3959994 18.193978,3.3329997 17.999978,3.3329997z M15.99998,0C18.902977,0 21.579974,0.7149992 24.030971,2.1459999 26.481968,3.5769997 28.422966,5.5179996 29.853964,7.9689994L29.855964,7.9689994C31.285962,10.42 32.000961,13.097 32.000961,16 32.000961,18.901999 31.285962,21.58 29.854964,24.030999 28.423966,26.482 26.482968,28.424 24.031971,29.854 21.579974,31.285 18.901977,32 15.99998,32 13.097983,32 10.419987,31.285 7.9689894,29.854 5.517992,28.423 3.5769958,26.482 2.1459961,24.030999 0.71499825,21.58 0,18.901999 0,16 0,13.098 0.71499825,10.421 2.1459961,7.9689994 3.5769958,5.5169997 5.517992,3.5769997 7.9689894,2.1459999 10.419987,0.7149992 13.096984,0 15.99998,0z" />
  </g>
</svg>