<?xml version="1.0" encoding="utf-8"?>
<svg xmlns="http://www.w3.org/2000/svg" height="48" width="48" viewBox="0 0 48 48">
  <g>
    <ellipse cy="24" cx="24" ry="24" rx="24" fill="#5F60B8" />
    <path id="path1" transform="rotate(0,24,24) translate(15.5914357413585,11) scale(0.812500096857444,0.812500096857444)  " fill="#FFFFFF" d="M9.9989946,18.801896C8.3989875,18.801896 7.0990002,20.101909 7.0990002,21.700919 7.0990002,22.900926 7.7989819,23.800933 8.6990068,24.300937L8.6990068,28.200965 11.099001,28.200965 11.099001,24.300937C12.099001,23.800933 12.698,22.900926 12.698,21.700919 12.798006,20.101909 11.498995,18.801896 9.9989946,18.801896z M8.7611511,0.00021949895C11.466109,0.023492754,14.032363,1.8943686,15.097994,4.7027968L16.397981,8.4028276C16.597994,9.0028308,16.698,9.6028331,16.798006,10.202836L14.897981,10.202836C14.897981,9.7028325,14.798006,9.2028287,14.597994,8.7028259L13.597994,6.0028094C12.599001,3.2037857 9.5990007,1.703775 6.898988,2.8037814 4.1999824,3.8037885 2.8999944,7.0028165 4.0000007,9.902839L4.8989875,12.402856 13.997987,12.402856 16.798006,12.402856C18.997987,12.701855,20.698002,14.801868,20.698002,17.201886L20.698002,27.100959C20.698002,29.799976,18.698,31.999996,16.198,31.999996L4.4989936,31.999996C2.0000005,31.999996,1.4330499E-07,29.799976,0,27.100959L0,17.201886C1.4330499E-07,15.101874,1.2999881,13.301857,3.099976,12.602855L2.1999824,10.002838C0.79998801,6.3028067 2.5000005,2.0037802 6.0989997,0.50376948 6.898988,0.20376425 7.6990063,0.0037658689 8.4989936,0.0037657364 8.5864932,0.0006408943 8.6738946,-0.00053094873 8.7611511,0.00021949895z" />
  </g>
</svg>