<?xml version="1.0" encoding="utf-8"?>
<svg xmlns="http://www.w3.org/2000/svg" height="48" width="48" viewBox="0 0 48 48">
  <g>
    <ellipse cy="24" cx="24" stroke-width="1.625" ry="23.1875" rx="23.1875" stroke="#6B6B6B" fill="transparent" />
    <path id="path1" transform="rotate(0,24,24) translate(12.0188747644424,11) scale(0.8125,0.8125)  " fill="#87CE3E" d="M25.078,26.181976C24.877011,26.181976 24.777036,26.281982 24.676999,26.281982 24.075009,26.483002 23.673032,26.983978 23.673032,27.585999 23.673032,28.187988 24.075009,28.588989 24.575986,28.889984L24.575986,30.79599 25.880002,30.79599 25.880002,28.889984C26.382016,28.690002 26.783017,28.187988 26.783017,27.585999 26.783017,26.983978 26.382016,26.483002 25.780026,26.281982 25.479001,26.281982 25.379025,26.181976 25.078,26.181976z M25.178036,20.764984C23.973996,20.764984,23.072018,21.566986,23.072018,22.67099L23.072018,23.673981C23.072018,23.974976,23.171994,24.276001,23.272031,24.576996L27.083981,24.576996C27.285031,24.276001,27.285031,23.974976,27.285031,23.673981L27.285031,22.67099C27.285031,21.566986,26.382016,20.764984,25.178036,20.764984z M25.178036,19.961975C26.783017,19.961975,28.087033,21.065979,28.087033,22.470001L28.087033,23.773987C28.087033,24.074982 28.087033,24.276001 27.986996,24.475983 28.790036,24.677002 29.492001,25.378998 29.492001,26.281982L29.492001,30.093994C29.492001,31.096985,28.689023,32,27.585995,32L22.770993,32C21.768002,32,20.864987,31.196991,20.864987,30.093994L20.864987,26.281982C20.864987,25.378998 21.567014,24.576996 22.470029,24.475983 22.369015,24.276001 22.369015,23.974976 22.369015,23.773987L22.369015,22.470001C22.268979,21.065979,23.572995,19.961975,25.178036,19.961975z M12.437987,5.617981L12.437987,5.7179871C12.338012,5.7179871,12.137023,5.8179932,12.137023,6.0189819L12.137023,11.635986 6.7210076,11.635986C6.6199944,11.635986,6.4199822,11.737,6.4199822,11.936981L6.4199822,15.247986C6.4199822,15.347992,6.5200189,15.548981,6.7210076,15.548981L12.238036,15.548981 12.238036,21.065979C12.238036,21.165985,12.338012,21.366974,12.539,21.366974L16.551024,21.366974C16.652037,21.366974,16.851989,21.265991,16.851989,21.065979L16.851989,15.548981 22.06799,15.548981C22.169003,15.548981,22.369015,15.447998,22.369015,15.247986L22.369015,11.936981C22.369015,11.836975,22.268979,11.635986,22.06799,11.635986L16.851989,11.635986 16.851989,5.9189758C16.851989,5.8179932,16.752013,5.617981,16.551024,5.617981z M14.544982,0C22.570004,0 29.090024,6.519989 29.090024,14.544983 29.090024,16.450989 28.689023,18.356995 27.986996,20.062988 27.285031,19.159973 26.080991,18.557983 24.777036,18.557983 22.470029,18.557983 20.663998,20.363983 20.663998,22.67099L20.663998,23.472992C19.561032,24.074982,18.858031,25.178986,18.858031,26.483002L18.858031,28.588989C17.453978,28.990997 15.949034,29.291992 14.445006,29.291992 6.5200189,29.190979 1.9937215E-07,22.67099 0,14.544983 1.9937215E-07,6.519989 6.5200189,0 14.544982,0z" />
  </g>
</svg>