<?xml version="1.0" encoding="utf-8"?>
<svg style="position: absolute; width: 0; height: 0;" width="0" height="0" version="1.1" xmlns="http://www.w3.org/2000/svg" xmlns:xlink="http://www.w3.org/1999/xlink">
  <defs>
    <symbol id="icon-plus" viewBox="0 0 512 512">
      <title>plus</title>
      <g>
        <path class="path1" d="M12.126984,0L19.872009,0 19.872009,12.128 32,12.128 32,19.872999 19.872009,19.872999 19.872009,31.999 12.126984,31.999 12.126984,19.872999 0,19.872999 0,12.128 12.126984,12.128z" />
      </g>
    </symbol>
    <symbol id="icon-find" viewBox="0 0 512 512">
      <title>find</title>
      <g>
        <path class="path1" d="M12.003748,4.5049986C10.494726,4.5309996 8.9806971,4.987008 7.7016882,5.9000024 4.5866403,8.1250076 4.0476317,12.220008 6.5006675,15.049994 8.9517054,17.875006 13.465759,18.364996 16.581798,16.140005 19.698844,13.915 20.235855,9.8199996 17.783826,6.9899983 16.404809,5.3980035 14.373776,4.5479979 12.305754,4.5049986 12.205747,4.5029997 12.104748,4.5029997 12.003748,4.5049986z M12.127743,2.0721107E-06C15.724792,-0.0019966637 19.286836,1.4420032 21.684881,4.2050108 25.103918,8.1500015 25.075918,13.549994 22.002878,17.435003L31.444,28.325001 26.299932,32.000002 16.892806,21.15C11.969737,23.054996 6.0676631,21.830006 2.5996136,17.834997 -1.5464387,13.049994 -0.63543081,6.1250085 4.6346449,2.3600098 6.8586745,0.77200525 9.5027079,0.0010016877 12.127743,2.0721107E-06z" />
      </g>
    </symbol>
    <symbol id="icon-find-wf" viewBox="0 0 512 512">
      <title>find-wf</title>
      <g>
        <path class="path1" d="M11.170988,2.0000026C6.1139962,2.0000026 1.9999944,6.1120075 1.9999944,11.16603 1.9999944,16.219991 6.1139962,20.331996 11.170988,20.331996 16.227981,20.331996 20.341006,16.219991 20.341006,11.16603 20.341006,6.1120075 16.227981,2.0000026 11.170988,2.0000026z M11.170988,0C17.33003,0 22.341001,5.0089787 22.341001,11.16603 22.341001,13.76351 21.449155,16.156669 19.95551,18.055608L19.942527,18.071714 31.999898,30.615001 30.5589,32.001003 18.567029,19.525854 18.476871,19.605846C16.516895,21.303544 13.961804,22.332 11.170988,22.332 5.0119487,22.332 1.6168633E-07,17.32302 0,11.16603 1.6168633E-07,5.0089787 5.0119487,0 11.170988,0z" />
      </g>
    </symbol>
    <symbol id="icon-delete" viewBox="0 0 512 512">
      <title>delete</title>
      <g>
        <path class="path1" d="M2.0050016,10.291992L6.2790426,10.291992 6.2790426,28.350006 9.5599821,28.350006 9.5599821,10.291992 14.490027,10.291992 14.490027,28.350006 17.772981,28.350006 17.772981,10.291992 22.04696,10.291992 22.04696,32 2.0050016,32z M0,3.5249939L24.053,3.5249939 24.053,6.6329956 0,6.6329956z M6.5170182,0L17.535981,0 17.535981,2.8399963 6.5170182,2.8399963z" />
      </g>
    </symbol>
    <symbol id="icon-app" viewBox="0 0 512 512">
      <title>app</title>
      <g>
        <path class="path1" d="M27.800018,21.800009C28.300018,21.800009 28.600006,22.099997 28.600006,22.599997 28.600006,23.099997 28.300018,23.4 27.800018,23.4 27.300018,23.4 27,23.099997 27,22.599997 27,22.200003 27.400024,21.800009 27.800018,21.800009z M27.100006,21.000004C25.800018,21.000004 24.800018,22.000006 24.800018,23.300009 24.800018,23.599997 24.900024,23.800009 24.900024,24.099997L22.100006,26.9 22.100006,28.200018 23.400024,28.200018 23.400024,27.4 24.200012,27.4 24.200012,26.600012 25,26.600012 26.200012,25.4C26.400024,25.500006 26.700012,25.500006 27,25.500006 28.300018,25.500006 29.300018,24.500006 29.300018,23.200003 29.400024,22.099997 28.400024,21.000004 27.100006,21.000004z M25.800018,18.500004C29.200012,18.500004 32,21.300007 32,24.700003 32,28.100012 29.200012,30.900002 25.800018,30.900002 22.400024,30.900002 19.600006,28.100012 19.600006,24.700003 19.600006,21.200001 22.400024,18.500004 25.800018,18.500004z M13.700012,1.2413238E-07C13.712513,-4.1377461E-08 13.723452,-4.1377461E-08 13.732826,1.2413238E-07 13.742203,-4.1377461E-08 13.750015,-4.1377461E-08 13.756266,1.2413238E-07 13.762516,-4.1377461E-08 13.767204,-4.1377461E-08 13.770329,1.2413238E-07 13.773455,-4.1377461E-08 13.775017,-4.1377461E-08 13.775017,1.2413238E-07L13.800018,1.2413238E-07C19.100006,-4.1377461E-08 20.100006,3.8000038 19.900024,5.1999982 19.800018,6.3999956 19.5,7.8999956 19.5,7.8999956 19.5,7.8999956 20.100006,8.1999991 20.100006,9.1999991 19.900024,11.800006 18.900024,10.699999 18.700012,11.800006 18.300018,14.000003 17.400024,14.099994 17.100006,14.899997 17,15.099994 17,15.300006 17,15.599995 17,17.700001 17.800018,18.800007 20.300018,19.899998 19.200012,21.200001 18.5,22.9 18.5,24.700003 18.5,27.100012 19.700012,29.299994 21.5,30.600014L0,30.600014 0,24.300009C0,23.300009 1.7000122,21.9 5.5,20.599995 9.3000183,19.200001 10.5,18.099995 10.5,15.599995 10.5,15.300006 10.5,15.099994 10.400024,14.899997 10.100006,14.099994 9.3000183,14.000003 8.8000183,11.800006 8.6000061,10.699999 7.6000061,11.800006 7.4000244,9.1999991 7.4000244,8.1999991 8,7.8999956 8,7.8999956 8,7.8999956 7.7000122,6.3999956 7.6000061,5.1999982 7.5,3.8000038 8.5,-4.1377461E-08 13.700012,1.2413238E-07z" />
      </g>
    </symbol>
  </defs>
</svg>

