<?xml version="1.0" encoding="utf-8"?>
<svg style="position: absolute; width: 0; height: 0;" width="0" height="0" version="1.1" xmlns="http://www.w3.org/2000/svg" xmlns:xlink="http://www.w3.org/1999/xlink">
  <defs>
    <symbol id="icon-Search-WF" viewBox="0 0 512 512">
      <title>Search-WF</title>
      <g>
        <path class="path1" d="M11.170988,2.0000026C6.1139962,2.0000026 1.9999944,6.1120075 1.9999944,11.16603 1.9999944,16.219991 6.1139962,20.331996 11.170988,20.331996 16.227981,20.331996 20.341006,16.219991 20.341006,11.16603 20.341006,6.1120075 16.227981,2.0000026 11.170988,2.0000026z M11.170988,0C17.33003,0 22.341001,5.0089787 22.341001,11.16603 22.341001,13.76351 21.449155,16.156669 19.95551,18.055608L19.942527,18.071714 31.999898,30.615001 30.5589,32.001003 18.567029,19.525854 18.476871,19.605846C16.516895,21.303544 13.961804,22.332 11.170988,22.332 5.0119487,22.332 1.6168633E-07,17.32302 0,11.16603 1.6168633E-07,5.0089787 5.0119487,0 11.170988,0z" />
      </g>
    </symbol>
    <symbol id="icon-plus" viewBox="0 0 512 512">
      <title>plus</title>
      <g>
        <path class="path1" d="M12.126984,0L19.872009,0 19.872009,12.128 32,12.128 32,19.872999 19.872009,19.872999 19.872009,31.999 12.126984,31.999 12.126984,19.872999 0,19.872999 0,12.128 12.126984,12.128z" />
      </g>
    </symbol>
    <symbol id="icon-Search-Find" viewBox="0 0 512 512">
      <title>Search-Find</title>
      <g>
        <path class="path1" d="M12.003748,4.5049986C10.494726,4.5309996 8.9806971,4.987008 7.7016882,5.9000024 4.5866403,8.1250076 4.0476317,12.220008 6.5006675,15.049994 8.9517054,17.875006 13.465759,18.364996 16.581798,16.140005 19.698844,13.915 20.235855,9.8199996 17.783826,6.9899983 16.404809,5.3980035 14.373776,4.5479979 12.305754,4.5049986 12.205747,4.5029997 12.104748,4.5029997 12.003748,4.5049986z M12.127743,2.0721107E-06C15.724792,-0.0019966637 19.286836,1.4420032 21.684881,4.2050108 25.103918,8.1500015 25.075918,13.549994 22.002878,17.435003L31.444,28.325001 26.299932,32.000002 16.892806,21.15C11.969737,23.054996 6.0676631,21.830006 2.5996136,17.834997 -1.5464387,13.049994 -0.63543081,6.1250085 4.6346449,2.3600098 6.8586745,0.77200525 9.5027079,0.0010016877 12.127743,2.0721107E-06z" />
      </g>
    </symbol>
  </defs>
</svg>

